<svg width="497" height="488" viewBox="0 0 497 488" fill="none" xmlns="http://www.w3.org/2000/svg">
<g opacity="0.8" filter="url(#filter0_d)">
<path fill-rule="evenodd" clip-rule="evenodd" d="M155.903 263.234H332.001V221.654H155.903V263.234Z" fill="#605E5E"/>
<path fill-rule="evenodd" clip-rule="evenodd" d="M165.739 253.42H322.179V231.469H165.739V253.42ZM332.008 273.048H155.91C150.484 273.048 146.081 268.658 146.081 263.234V221.655C146.081 216.237 150.484 211.84 155.91 211.84H332.008C337.433 211.84 341.837 216.237 341.837 221.655V263.234C341.837 268.658 337.433 273.048 332.008 273.048Z" fill="#2E2E30"/>
<path fill-rule="evenodd" clip-rule="evenodd" d="M333.791 396.674H381.886V88.2141H333.791V396.674Z" fill="#4A6082"/>
<path fill-rule="evenodd" clip-rule="evenodd" d="M381.886 364.713H429.981V120.176H381.886V364.713Z" fill="#A8BCCB"/>
<path fill-rule="evenodd" clip-rule="evenodd" d="M429.987 323.192H478.083V161.696H429.987V323.192Z" fill="#4A6082"/>
<path fill-rule="evenodd" clip-rule="evenodd" d="M106.026 396.674H154.121V88.2141H106.026V396.674Z" fill="#4A6082"/>
<path fill-rule="evenodd" clip-rule="evenodd" d="M57.9307 364.713H106.026V120.176H57.9307V364.713Z" fill="#A8BCCB"/>
<path fill-rule="evenodd" clip-rule="evenodd" d="M9.82861 323.192H57.9239V161.696H9.82861V323.192Z" fill="#4A6082"/>
<path opacity="0.3" fill-rule="evenodd" clip-rule="evenodd" d="M106.026 396.674H154.121V364.713H106.026V396.674Z" fill="#010202"/>
<path opacity="0.3" fill-rule="evenodd" clip-rule="evenodd" d="M333.791 396.674H381.886V364.713H333.791V396.674Z" fill="#010202"/>
<path opacity="0.3" fill-rule="evenodd" clip-rule="evenodd" d="M57.9307 364.719H106.026V332.758H57.9307V364.719Z" fill="#010202"/>
<path opacity="0.3" fill-rule="evenodd" clip-rule="evenodd" d="M383.674 364.719H431.77V332.758H383.674V364.719Z" fill="#010202"/>
<path opacity="0.3" fill-rule="evenodd" clip-rule="evenodd" d="M9.82861 323.199H57.9239V291.237H9.82861V323.199Z" fill="#010202"/>
<path opacity="0.3" fill-rule="evenodd" clip-rule="evenodd" d="M431.776 323.199H479.872V291.237H431.776V323.199Z" fill="#010202"/>
<path fill-rule="evenodd" clip-rule="evenodd" d="M343.619 386.86H372.057V98.0283H343.619V386.86ZM381.885 406.488H333.79C328.365 406.488 323.961 402.092 323.961 396.674V88.2141C323.961 82.7967 328.365 78.3999 333.79 78.3999H381.885C387.311 78.3999 391.714 82.7967 391.714 88.2141V396.674C391.714 402.092 387.311 406.488 381.885 406.488Z" fill="#2E2E30"/>
<path fill-rule="evenodd" clip-rule="evenodd" d="M391.714 354.898H420.158V129.99H391.714V354.898ZM429.987 374.527H381.885C376.46 374.527 372.057 370.13 372.057 364.713V120.176C372.057 114.758 376.46 110.361 381.885 110.361H429.987C435.413 110.361 439.816 114.758 439.816 120.176V364.713C439.816 370.13 435.413 374.527 429.987 374.527Z" fill="#2E2E30"/>
<path fill-rule="evenodd" clip-rule="evenodd" d="M439.816 313.384H468.254V171.51H439.816V313.384ZM478.083 333.013H429.987C424.562 333.013 420.159 328.616 420.159 323.199V161.696C420.159 156.279 424.562 151.882 429.987 151.882H478.083C483.508 151.882 487.911 156.279 487.911 161.696V323.199C487.911 328.616 483.508 333.013 478.083 333.013Z" fill="#2E2E30"/>
<path fill-rule="evenodd" clip-rule="evenodd" d="M115.855 386.86H144.299V98.0283H115.855V386.86ZM154.121 406.488H106.026C100.601 406.488 96.1973 402.092 96.1973 396.674V88.2141C96.1973 82.7967 100.601 78.3999 106.026 78.3999H154.121C159.553 78.3999 163.95 82.7967 163.95 88.2141V396.674C163.95 402.092 159.553 406.488 154.121 406.488Z" fill="#2E2E30"/>
<path fill-rule="evenodd" clip-rule="evenodd" d="M67.7527 354.898H96.197V129.99H67.7527V354.898ZM106.026 374.527H57.9239C52.4985 374.527 48.0952 370.13 48.0952 364.713V120.176C48.0952 114.758 52.4985 110.361 57.9239 110.361H106.026C111.451 110.361 115.854 114.758 115.854 120.176V364.713C115.854 370.13 111.451 374.527 106.026 374.527Z" fill="#2E2E30"/>
<path fill-rule="evenodd" clip-rule="evenodd" d="M19.6575 313.384H48.0953V171.51H19.6575V313.384ZM57.924 333.013H9.82873C4.40327 333.013 0 328.616 0 323.199V161.696C0 156.279 4.40327 151.882 9.82873 151.882H57.924C63.3495 151.882 67.7527 156.279 67.7527 161.696V323.199C67.7527 328.616 63.3495 333.013 57.924 333.013Z" fill="#2E2E30"/>
</g>
<defs>
<filter id="filter0_d" x="0" y="0" width="497" height="497" filterUnits="userSpaceOnUse" color-interpolation-filters="sRGB">
<feFlood flood-opacity="0" result="BackgroundImageFix"/>
<feColorMatrix in="SourceAlpha" type="matrix" values="0 0 0 0 0 0 0 0 0 0 0 0 0 0 0 0 0 0 127 0"/>
<feOffset dx="5" dy="5"/>
<feGaussianBlur stdDeviation="2"/>
<feColorMatrix type="matrix" values="0 0 0 0 0 0 0 0 0 0 0 0 0 0 0 0 0 0 0.4 0"/>
<feBlend mode="normal" in2="BackgroundImageFix" result="effect1_dropShadow"/>
<feBlend mode="normal" in="SourceGraphic" in2="effect1_dropShadow" result="shape"/>
</filter>
</defs>
</svg>
