<svg width="38" height="39" viewBox="0 0 38 39" fill="none" xmlns="http://www.w3.org/2000/svg">
<path d="M27.6934 38.1931C26.2269 38.1822 24.7668 37.9981 23.3434 37.6447C18.4281 36.4587 13.3666 33.4503 9.09343 29.1734C4.8203 24.8965 1.80812 19.834 0.62218 14.9234C-0.62657 9.75779 0.264055 5.33841 3.12718 2.47529L3.94468 1.65779C4.68639 0.917562 5.69148 0.501831 6.73937 0.501831C7.78726 0.501831 8.79234 0.917562 9.53405 1.65779L14.2319 6.35466C14.9726 7.09613 15.3886 8.10131 15.3886 9.14935C15.3886 10.1974 14.9726 11.2026 14.2319 11.944L11.4569 14.7181C12.7872 17.0525 14.5966 19.3887 16.735 21.5272C18.8734 23.6656 21.2116 25.4759 23.545 26.8062L26.3191 24.0312C26.686 23.6641 27.1217 23.3729 27.6012 23.1743C28.0807 22.9756 28.5947 22.8733 29.1137 22.8733C29.6328 22.8733 30.1468 22.9756 30.6263 23.1743C31.1058 23.3729 31.5415 23.6641 31.9084 24.0312L36.6053 28.7281C37.3462 29.4693 37.7623 30.4744 37.7623 31.5223C37.7623 32.5703 37.3462 33.5753 36.6053 34.3165L35.7869 35.134C33.7684 37.1562 30.9747 38.1931 27.6934 38.1931ZM6.73937 3.31248C6.58968 3.31173 6.44135 3.34087 6.30307 3.39818C6.16479 3.45549 6.03933 3.53982 5.93405 3.64623L5.11562 4.46373C2.97155 6.60779 2.3453 10.0887 3.35218 14.2597C4.41812 18.6781 7.16218 23.269 11.0781 27.184C14.9941 31.099 19.5841 33.8403 24.0034 34.91C28.1753 35.9169 31.6544 35.2906 33.7984 33.1465L34.6159 32.329C34.8295 32.1153 34.9495 31.8254 34.9495 31.5233C34.9495 31.2211 34.8295 30.9312 34.6159 30.7175L29.92 26.0206C29.7062 25.807 29.4164 25.687 29.1142 25.687C28.812 25.687 28.5222 25.807 28.3084 26.0206L24.7919 29.5372C24.5809 29.7483 24.3082 29.8868 24.0132 29.9326C23.7183 29.9785 23.4164 29.9293 23.1512 29.7922C20.2684 28.3015 17.3622 26.1312 14.7466 23.5156C12.1309 20.9 9.9653 17.9956 8.47093 15.1128C8.3337 14.8478 8.28435 14.5459 8.33002 14.251C8.3757 13.956 8.51402 13.6833 8.72499 13.4722L12.2425 9.9556C12.4561 9.74184 12.5761 9.45201 12.5761 9.14982C12.5761 8.84763 12.4561 8.5578 12.2425 8.34404L7.54562 3.64623C7.44001 3.54 7.31436 3.4558 7.17596 3.39851C7.03755 3.34122 6.88916 3.31197 6.73937 3.31248Z" fill="black"/>
</svg>
