<svg width="52" height="48" viewBox="0 0 52 48" fill="none" xmlns="http://www.w3.org/2000/svg">
<g filter="url(#filter0_d)">
<path d="M37.68 9H10.32C8.77506 9.00397 7.29476 9.62048 6.20373 10.7143C5.11269 11.8082 4.49999 13.2901 4.5 14.835V31.665C4.49999 33.2099 5.11269 34.6918 6.20373 35.7857C7.29476 36.8795 8.77506 37.496 10.32 37.5H37.68C39.2249 37.496 40.7052 36.8795 41.7963 35.7857C42.8873 34.6918 43.5 33.2099 43.5 31.665V14.835C43.5 13.2901 42.8873 11.8082 41.7963 10.7143C40.7052 9.62048 39.2249 9.00397 37.68 9ZM37.68 12H37.92L24 22.14L10.08 12H10.32H37.68ZM40.5 31.665C40.5 32.4143 40.2034 33.1331 39.675 33.6644C39.1465 34.1956 38.4293 34.496 37.68 34.5H10.32C9.57071 34.496 8.85347 34.1956 8.32504 33.6644C7.79662 33.1331 7.49999 32.4143 7.5 31.665V14.835C7.50344 14.534 7.55405 14.2353 7.65 13.95L23.13 25.215C23.3869 25.4027 23.6968 25.5039 24.015 25.5039C24.3332 25.5039 24.6431 25.4027 24.9 25.215L40.365 13.95C40.4609 14.2353 40.5116 14.534 40.515 14.835L40.5 31.665Z" fill="black"/>
</g>
<defs>
<filter id="filter0_d" x="0" y="0" width="56" height="56" filterUnits="userSpaceOnUse" color-interpolation-filters="sRGB">
<feFlood flood-opacity="0" result="BackgroundImageFix"/>
<feColorMatrix in="SourceAlpha" type="matrix" values="0 0 0 0 0 0 0 0 0 0 0 0 0 0 0 0 0 0 127 0"/>
<feOffset dx="4" dy="4"/>
<feGaussianBlur stdDeviation="2"/>
<feColorMatrix type="matrix" values="0 0 0 0 0 0 0 0 0 0 0 0 0 0 0 0 0 0 0.25 0"/>
<feBlend mode="normal" in2="BackgroundImageFix" result="effect1_dropShadow"/>
<feBlend mode="normal" in="SourceGraphic" in2="effect1_dropShadow" result="shape"/>
</filter>
</defs>
</svg>
