<svg width="599" height="599" viewBox="0 0 599 599" fill="none" xmlns="http://www.w3.org/2000/svg">
<g opacity="0.6" clip-path="url(#clip0)">
<path d="M299.5 0C220.068 0 143.889 31.5544 87.7215 87.7215C31.5544 143.889 0 220.068 0 299.5C0 378.932 31.5544 455.111 87.7215 511.278C143.889 567.446 220.068 599 299.5 599C309.429 599 318.951 595.056 325.972 588.035C332.993 581.014 336.938 571.492 336.938 561.563C336.938 551.633 332.993 542.111 325.972 535.09C318.951 528.069 309.429 524.125 299.5 524.125C255.073 524.125 211.644 510.951 174.705 486.269C137.766 461.587 108.975 426.505 91.9736 385.46C74.9722 344.415 70.5239 299.251 79.1911 255.678C87.8583 212.105 109.252 172.081 140.666 140.666C172.081 109.252 212.105 87.8583 255.678 79.1911C299.251 70.5239 344.415 74.9722 385.46 91.9736C426.505 108.975 461.587 137.766 486.269 174.705C510.951 211.644 524.125 255.073 524.125 299.5V411.813C524.125 421.742 520.181 431.264 513.16 438.285C506.139 445.306 496.617 449.25 486.688 449.25C476.758 449.25 467.236 445.306 460.215 438.285C453.194 431.264 449.25 421.742 449.25 411.813V299.5C449.25 269.882 440.467 240.93 424.013 216.303C407.558 191.677 384.17 172.483 356.807 161.149C329.444 149.815 299.334 146.849 270.285 152.627C241.237 158.406 214.554 172.668 193.611 193.611C172.668 214.554 158.406 241.237 152.627 270.285C146.849 299.334 149.815 329.444 161.149 356.807C172.483 384.17 191.677 407.558 216.303 424.013C240.93 440.467 269.882 449.25 299.5 449.25C326.49 449.118 352.931 441.613 375.965 427.547C379.887 455.673 394.342 481.262 416.407 499.139C438.473 517.016 466.503 525.848 494.832 523.85C523.16 521.851 549.673 509.171 569.01 488.373C588.347 467.575 599.066 440.211 599 411.813V299.5C598.922 220.092 567.342 143.958 511.192 87.808C455.042 31.6578 378.908 0.0782998 299.5 0V0ZM299.5 374.375C284.691 374.375 270.215 369.984 257.902 361.756C245.589 353.529 235.992 341.835 230.325 328.153C224.657 314.472 223.175 299.417 226.064 284.893C228.953 270.368 236.084 257.027 246.555 246.555C257.027 236.084 270.368 228.953 284.893 226.064C299.417 223.175 314.472 224.657 328.153 230.325C341.835 235.992 353.529 245.589 361.756 257.902C369.984 270.215 374.375 284.691 374.375 299.5C374.362 319.354 366.469 338.391 352.43 352.43C338.391 366.469 319.354 374.362 299.5 374.375Z" fill="black"/>
</g>
<defs>
<clipPath id="clip0">
<rect width="599" height="599" fill="white"/>
</clipPath>
</defs>
</svg>
