<svg width="38" height="33" viewBox="0 0 38 33" fill="none" xmlns="http://www.w3.org/2000/svg">
<path d="M19 21.2957C24.3146 21.2957 28.623 17.5542 28.623 12.9389C28.623 8.32351 24.3146 4.58203 19 4.58203C13.6853 4.58203 9.37695 8.32351 9.37695 12.9389C9.37695 17.5542 13.6853 21.2957 19 21.2957Z" fill="black" stroke="black" stroke-miterlimit="10"/>
<path d="M18.9998 17.877C22.1403 17.877 24.6861 15.6661 24.6861 12.9389C24.6861 10.2116 22.1403 8.00073 18.9998 8.00073C15.8593 8.00073 13.3135 10.2116 13.3135 12.9389C13.3135 15.6661 15.8593 17.877 18.9998 17.877Z" fill="#0CB5CC"/>
<path d="M19.0002 28.7267C18.7542 28.7267 18.3988 28.4181 18.3988 28.4181C8.01029 18.0433 9.3772 12.939 9.3772 12.939C9.3772 12.939 12.3844 21.2721 19.0002 21.2958" fill="black"/>
<path d="M19 28.7267C19.246 28.7267 19.6014 28.4181 19.6014 28.4181C29.9899 18.0433 28.623 12.939 28.623 12.939C28.623 12.939 25.6158 21.2721 19 21.2958" fill="black"/>
</svg>
