<svg width="88" height="88" viewBox="0 0 88 88" fill="none" xmlns="http://www.w3.org/2000/svg">
<g filter="url(#filter0_d)">
<rect width="80" height="80" rx="19" fill="black"/>
<path d="M50.959 26.2107L26.0337 51.136L28.8621 53.9644L53.7874 29.0391L50.959 26.2107Z" fill="white"/>
<path d="M62.1669 15.1339L59.8682 17.4316L62.6962 20.2608L64.9949 17.9631L62.1669 15.1339Z" fill="white"/>
<path d="M17.8316 64.7653L20.1304 62.4675L17.3024 59.6383L15.0036 61.9361L17.8316 64.7653Z" fill="white"/>
<path d="M45.1039 18.1862L40.1514 23.1331L56.7588 39.7593L61.7113 34.8124L45.1039 18.1862Z" fill="white"/>
<path d="M53.9816 15.077L50.0903 18.9644L61.2224 30.1075L65.1137 26.2201L53.9816 15.077Z" fill="white"/>
<path d="M34.8912 61.6237L39.8438 56.6768L23.2363 40.0505L18.2838 44.9974L34.8912 61.6237Z" fill="white"/>
<path d="M26.015 64.9519L29.9062 61.0645L18.7742 49.9213L14.8829 53.8087L26.015 64.9519Z" fill="white"/>
</g>
<defs>
<filter id="filter0_d" x="0" y="0" width="88" height="88" filterUnits="userSpaceOnUse" color-interpolation-filters="sRGB">
<feFlood flood-opacity="0" result="BackgroundImageFix"/>
<feColorMatrix in="SourceAlpha" type="matrix" values="0 0 0 0 0 0 0 0 0 0 0 0 0 0 0 0 0 0 127 0"/>
<feOffset dx="4" dy="4"/>
<feGaussianBlur stdDeviation="2"/>
<feColorMatrix type="matrix" values="0 0 0 0 0 0 0 0 0 0 0 0 0 0 0 0 0 0 0.3 0"/>
<feBlend mode="normal" in2="BackgroundImageFix" result="effect1_dropShadow"/>
<feBlend mode="normal" in="SourceGraphic" in2="effect1_dropShadow" result="shape"/>
</filter>
</defs>
</svg>
