<svg width="973" height="714" viewBox="0 0 973 714" fill="none" xmlns="http://www.w3.org/2000/svg">
<g opacity="0.6">
<path d="M676.916 315.222C676.916 210.032 591.657 124.772 486.451 124.772C381.245 124.772 296.001 210.032 296.001 315.222C296.001 465.931 486.451 688.93 486.451 688.93C486.451 688.93 676.916 465.155 676.916 315.222ZM392.526 303.85C392.526 251.962 434.593 209.91 486.466 209.91C538.339 209.91 580.406 251.962 580.406 303.85C580.406 355.738 538.339 397.79 486.466 397.79C434.593 397.79 392.526 355.738 392.526 303.85Z" fill="black"/>
<path d="M486.455 350.037C511.963 350.037 532.642 329.358 532.642 303.85C532.642 278.341 511.963 257.662 486.455 257.662C460.946 257.662 440.268 278.341 440.268 303.85C440.268 329.358 460.946 350.037 486.455 350.037Z" fill="black"/>
<path d="M594.138 622.69C578.616 645.114 564.051 664.666 551.919 680.355C672.267 687.577 751.141 713.559 780.483 732.897C746.108 755.565 643.959 787.431 486.485 787.431C329.011 787.431 226.861 755.55 192.486 732.897C221.828 713.574 300.642 687.607 420.868 680.37C408.705 664.681 394.126 645.145 378.588 622.72C230.494 637.3 122.932 681.115 122.932 732.882C122.932 796.583 285.712 848.243 486.485 848.243C687.272 848.243 850.022 796.598 850.022 732.882C850.052 681.085 742.368 637.254 594.138 622.69Z" fill="black"/>
</g>
</svg>
